<?xml version="1.0" encoding="utf-8"?>
<!-- Generator: Adobe Illustrator 24.0.1, SVG Export Plug-In . SVG Version: 6.00 Build 0)  -->
<svg version="1.1" id="Layer_1" xmlns="http://www.w3.org/2000/svg" xmlns:xlink="http://www.w3.org/1999/xlink" x="0px" y="0px"
	 viewBox="0 0 1111 1111" style="enable-background:new 0 0 1111 1111;" xml:space="preserve">
<path style="fill:#AF0F11;stroke:#AF0F11;stroke-width:9.375000e-02;" d="M646.6,149c6.3-0.1,12.2,1.9,18.2,3.3
	c43.9,11.4,84.3,34.8,117.6,65.3c2.3,2.1,3.5,5,4.2,7.9c8.7,40.5,10.7,83.3-1,123.3c-2.5,9.6-7.3,18.3-10,27.8
	c13-14.2,21.7-31.7,28.3-49.7c9.5-25.6,12.3-53.3,11.6-80.5c25.3,28,40.2,64.4,46.2,101.5c0.9,7,2.9,14.3,0.6,21.2
	c-14,48.8-46.7,90.7-86.4,121.5c0.2,0.4,0.6,1.3,0.8,1.8c15.9-5.2,30.5-13.7,43.4-24.2c12.1-9.8,23.3-20.9,32.7-33.3
	c8.1-10.2,15.1-21.3,22.3-32.1c0.6,22.4,1.4,45-2.3,67.2c-3.9,25-11.4,50.3-27.6,70.2c-6.7,8.8-16.8,13.8-26.5,18.7
	c-33.5,16.3-70.4,23.5-106.6,31.4c9.3,2.9,19.2,1.8,28.8,1.1c18.3-0.9,36.6-3.1,54.6-6.7c11.3-2,22.2-6.1,33.4-8.5
	c-17.2,24.1-38.6,44.9-62.2,62.6c-27.5,20.6-57.9,37-89.4,50.4c-10.2,4.2-20.4,8.5-31,11.1c5.3-5.8,12-10,18-15.1
	c13.9-11.7,27.6-23.8,38.8-38.2c3.5-4.5,6.5-9.5,7.7-15.2c-19.4,6.3-37.8,15.4-55.4,25.6c-15.8,8.8-30.7,19-45,29.9
	c-4.8,3.8-9.8,7.2-13.8,11.9c1.9,14.2,7.8,27.5,13.5,40.6c9,19.4,19.5,38,31.3,55.9c1.6,2.4,3.2,5.3,2.5,8.4
	c-2.3,12.8-5,25.5-7.7,38.2c-13.7-23-25.3-47.2-38.5-70.4c9.5,37.9,21.3,75.4,36.8,111.3c-14.3,19.9-27,40.9-37,63.3
	c-3,6.7-5.2,13.8-8.8,20.2c-1.7-34.6-2.9-69.3-6-103.8c-1.9-17.5-3-35.2-7.6-52.2c-3.9,35.7-6.3,71.6-9.5,107.3
	c-2.5,28-4.9,56.1-7.1,84.1c-0.4,4-0.9,8-2.2,11.8c-3.4-25.9-4.7-51.9-7.2-77.9c-2.8-29.9-5.1-60-7.8-89.9
	c-0.8-11.2-1.7-22.3-3.5-33.3c-3.3,18.3-4.9,36.9-6.7,55.4c-3.2,32.9-4.2,66.1-3.2,99.2c-4.5-8.2-7.8-17-12-25.3
	c-10.1-20.6-20.9-41.5-37.6-57.6c10.3-27.8,20-55.9,28.9-84.2c2.7-9.5,6.6-18.9,6.6-29c-12.9,23.6-23.4,48.5-37.7,71.3
	c-3.1-14-5.9-28.1-8.1-42.2c15.3-23.3,30.2-47.1,40.7-73c3.1-8.7,7-17.7,6.2-27.3c-2.1-3.2-5.4-5.3-8.3-7.7
	c-18.1-13.9-36.7-27-56.3-38.7c-15.9-9.3-32.2-18.1-49.9-23.4c9.3,21.8,26.2,39.3,44.3,54.1c7.3,5.9,15.6,10.5,22.7,16.7
	c-9.8-1.7-19.1-5.6-28.4-9c-52.6-20.3-102.5-50.4-139.9-93.1c-6.7-7.9-13.7-15.7-18.6-24.9c22.3,6.7,44.9,12.2,67.9,15.8
	c16.3,2.4,32.7,4.6,49.2,3.6c-7.1-3.3-14.8-4.9-22.2-7.1c-22.8-6.6-45.4-13.9-67.5-22.3c-10.4-4-20.7-8.2-30.5-13.4
	c-4.3-2.2-8.7-4.7-11.5-8.7c-9.6-13.4-16.5-28.8-21.1-44.6c-5.2-18.7-8.4-38-7.8-57.4c0.3-12.7-0.8-25.5,1.7-38.1
	c20.2,40.7,55.6,73,97.2,90.8c-5.4-5.1-11.4-9.6-16.9-14.6c-16.1-14.1-30.6-30-42.7-47.6c-13.2-18.9-23.6-40.2-28-63.1
	c-0.4-2.8-0.5-5.6-0.2-8.5c3.7-33.4,15.6-65.8,33.9-94c4-6.3,8.1-12.6,13.5-17.9c-2,27.8,1,56.2,11.6,82.1
	c6.7,16.9,16.9,32.3,29.4,45.4c-11.3-29.1-17.9-60.2-18.6-91.5c-0.2-20,2.8-40,9-59c1.6-4.7,5.1-8.2,8.7-11.4
	c25.6-22.3,56-38.5,87.6-50.5c12.5-4.6,25-9.5,38.2-12.1c-2.3,2.4-5.2,3.9-7.9,5.7C429.1,171.2,407.8,192,393,217
	c-15,24.9-22.4,54.1-22,83c0.3,28.2,7,56.1,17.3,82.3c-9.3,18-16.1,37.5-18.6,57.7c-2.2,18.3-1.2,37.3,4.3,55
	c5.2,17.1,14,33,25.3,46.8c19.3,23.2,44.4,41.2,71.8,53.8c-7.4-6.3-15.7-11.4-22.9-17.8c-24-20.1-45.5-44.3-57.6-73.4
	c-9-22.2-11.3-47.5-4.7-70.6c14.3,48.1,47.7,89.9,90.9,115.3c4.5,2.4,7.8,6.3,10.7,10.4c11,13.9,22.8,28.6,39.8,35.4
	c8.9-19.4,11-40.9,14.4-61.8c1-7.4,3.4-14.6,4.5-22c-6.1-9.6-18.2-11.5-26.6-18.2c15.2-0.7,30.3-0.6,45.4,0.3
	c9.4,0.3,18.7,2,27.3,5.6c5.6,2.4,12.4,1.3,17.4,5.4c7.4,6.6,10.7,17.4,8.3,27c-2.5-3.5-4.9-9-10-8.8c-9.6,1.3-16.3,9.1-24.6,13.3
	c-0.2,2.4-0.8,5,0.5,7.1c7.8,15.5,8.7,33.2,14.2,49.5c11.8-12.2,24.1-24.3,33.3-38.8c2.8-4.6,7.9-6.7,12-9.9
	c34.2-24,63.7-56.5,78.1-96.2c1.8-4.5,2.7-9.5,5.1-13.8c4.3,23.2,1,47.4-7.6,69.3c-11,27.8-30.4,51.7-53.1,70.9
	c-9.2,7.8-18.9,14.9-29,21.6c8.6-1.1,16-5.9,23.4-10c25.3-14.6,48.3-34.2,64-59c12.3-19.5,19.4-42.3,19.6-65.4
	c0.2-24.1-6.2-47.9-16.1-69.8c-1.4-3.1-3.4-6.6-1.8-10c11.8-29.5,17.6-61.5,15.7-93.2c-2.1-33.7-15.2-66.8-37.2-92.6
	c-12.2-14.5-27-26.9-43.1-36.9C656.5,155.3,651,152.9,646.6,149z"/>
<path style="fill:#AF0F11;stroke:#AF0F11;stroke-width:9.375000e-02;" d="M31.5,280.2c2,2.6,3.4,5.6,4.9,8.4
	c14.3,28.6,29.1,57,45.7,84.4c14.9,24.4,30.1,48.8,47.5,71.5c23.4,31.2,48.8,61,78.1,86.8c22,20.6,46.6,38.1,72.4,53.6
	c4.5,2.7,8.4,6.3,11.5,10.5c15.1,18.9,33.2,35,52.2,49.6c-46.1-7.3-91.8-16.8-136.8-28.9c-17.6-4.9-35.1-10.5-52.7-15.4
	c-11.1-4.7-23-7.2-34.1-11.8c-5.1-1.9-11-3.1-14.5-7.6c-8.1-10.6-13.9-22.8-18.8-35.2c-7.7-18.9-13.5-38.4-18.7-58.1
	c-8.6-33.3-15.6-66.9-21.4-100.8C40.7,351.7,35.4,316.1,31.5,280.2z"/>
<path style="fill:#AF0F11;stroke:#AF0F11;stroke-width:9.375000e-02;" d="M1066.9,306.9c4.9-8.6,8.2-18.2,14.1-26.3
	c-5.9,52.2-14,104.1-24.6,155.5c-4.8,22.8-10.1,45.5-16.5,67.8c-5.2,18-11.1,35.9-18.9,53c-3.3,7.1-6.9,14.1-11.3,20.7
	c-2.4,3.2-5,6.7-8.8,8.1c-10.8,4.4-21.9,8-33,11.4c-4.9,2-9.8,3.9-14.9,5.1c-10,2.5-19.6,6.2-29.6,8.5
	c-21.1,6.8-42.7,11.8-64.3,16.9c-31.4,7.1-63,13.4-94.8,18c17.5-13.3,34.1-27.9,48.9-44.2c3.7-4.3,7-9.1,11.9-12.1
	c27.7-16.2,54.3-34.5,77.8-56.3c18.4-16.2,35.6-33.9,51.4-52.7C999.4,427.9,1035.3,368.2,1066.9,306.9z"/>
<path style="fill:#FFFFFF;stroke:#FFFFFF;stroke-width:9.375000e-02;" d="M569.1,508.8c9.6-4.6,22.3-4.8,30.3,2.9
	c-5.3,1.6-10.8,2.8-16.1,4.1c-1.5-1.6-2.9-3.3-4.4-4.9C575.6,510.3,572.4,509.5,569.1,508.8z"/>
<path style="fill:#AF0F11;stroke:#AF0F11;stroke-width:9.375000e-02;" d="M141,618.1c8.9,2.8,18.1,4.5,27,7.1
	c14.4,3.5,28.5,8,43.2,10.2c17.1,2.7,33.8,7.2,50.8,10c33,4.9,65.9,10,99,13.6c3.9,0.4,7.4,2.3,10.6,4.4
	c24.3,15.1,50.6,26.6,77.4,36.7c-12,0.6-24-0.6-36-1c-26.9-1.2-53.9-0.8-80.8-2.7c-9.4-1-18.8-1-28.2-1.4c-25-1.1-50.1-1.8-75.1-4.2
	c-11-0.8-22.1-0.8-33.1-2c-11-1.9-18.9-10.8-25.7-18.9C157.9,654.2,147.1,637.1,141,618.1z"/>
<path style="fill:#AF0F11;stroke:#AF0F11;stroke-width:9.375000e-02;" d="M944.3,625.2c9-2.6,18.2-4.3,27.1-7.1
	c-2.4,9.1-6.9,17.6-11.5,25.9c-6,10.6-12.9,20.8-21,29.9c-4.5,5-9.3,9.8-15.4,12.7c-7,3.5-15,2.6-22.5,3.3
	c-16.7,0.5-33.2,2.6-49.9,3.2c-17,0.7-34.1,1.7-51.1,2.1c-11.7,0.1-23.3,1.7-34.9,2c-20.4,0.9-40.7,0.9-61.1,1.7
	c-14.4,0.5-28.9,1.9-43.5,1.2c24.7-9.5,48.8-20.5,71.6-34c4.7-2.7,9.3-6.1,14.9-6.6c35-3.7,69.7-9.1,104.5-14.3
	c16.9-2.8,33.4-7.3,50.4-9.9C916.3,633.1,930.2,628.6,944.3,625.2z"/>
<path style="fill:#AF0F11;stroke:#AF0F11;stroke-width:9.375000e-02;" d="M408.1,637.6c5.7,1.1,10.9,3.8,16.2,6.3
	c26.4,13.1,51.1,29.6,74.6,47.3c4.5,3.6,9.3,6.7,13.1,11.1c-0.1,9.5-4.3,18.2-7.5,27c-20.5-26.4-42-52.6-68.6-73.1
	c-5.5-1.2-11.3-0.1-16.6-2.1C414.1,649.7,411.1,643.5,408.1,637.6z"/>
<path style="fill:#AF0F11;stroke:#AF0F11;stroke-width:9.375000e-02;" d="M674.5,651.3c9.6-4.6,19-9.8,29.4-12.4
	c-2.4,5.2-6.2,9.7-10.1,13.9c-1.1,1-2,2.5-3.7,2.3c-5.4,0.3-11.5-0.4-16.1,3c-25.1,20.1-45.6,45.1-65.4,70.2
	c-3.7-8.8-6.7-18-8.8-27.3c7.8-7.5,16.7-13.7,25.5-19.9C640.8,669.8,657.4,660.1,674.5,651.3z"/>
<path style="fill:#AF0F11;stroke:#AF0F11;stroke-width:9.375000e-02;" d="M215.5,708.8c30.5,0.8,61,1.8,91.5,2.6
	c49.7,0.6,99.4,2.3,149,2.2c8,0.3,15.9-0.1,23.8,0.7c1.8,1.1,2.9,3.1,4.1,4.7c5.1,7.4,10.4,14.7,15.4,22.1c-3.9,5-6.9,10.6-9.1,16.5
	c-28.4-0.1-56.8,0-85.2,0c-21.7-0.3-43.3,0.9-65,0.6c-24-0.2-48-0.8-72-0.8c-5.1,0-9.8-2.5-14-5.2c-10-6.5-17.9-15.6-25.9-24.3
	C222.9,722.2,218.7,715.7,215.5,708.8z"/>
<path style="fill:#AF0F11;stroke:#AF0F11;stroke-width:9.375000e-02;" d="M805.9,711.5c30.4-1,60.8-1.9,91.1-2.7
	c-4,8.8-9.9,16.6-16.6,23.6c-8.2,8.8-16.8,17.8-27.8,23.1c-5.8,2.8-12.4,1.9-18.6,2c-12.4-0.3-24.7,0.1-37,0.6
	c-18.7-0.1-37.4,0.3-56.1-0.2c-17.9-0.7-35.9-0.2-53.9-0.3c-21.4-0.1-42.8,0-64.1,0c-2.9-5.8-6.8-11.2-8.5-17.6
	c5-9.3,12-17.3,17.9-26.1c41.9-0.4,83.8-0.6,125.7-1.7C774,711.8,789.9,711.7,805.9,711.5z"/>
<path style="fill:#AF0F11;stroke:#AF0F11;stroke-width:9.375000e-02;" d="M400,776.7c12.3-0.4,24.7,0.4,37-0.3
	c14-1,28.1-0.4,42.2-0.6c-3.6,7.3-8.5,13.9-12.7,20.8c-2.9,5.9,0.4,12.3,0.8,18.5c-33.4-9.3-66.9-18.6-100.3-28
	c-10.8-3.4-22.2-5-32.3-10C356.4,776,378.2,776.8,400,776.7z"/>
<path style="fill:#AF0F11;stroke:#AF0F11;stroke-width:9.375000e-02;" d="M632.9,775.9c10,0,20.1-0.2,30.1-0.1
	c38.3,2.1,76.6-0.3,114.9,1.3c-6.5,3.5-13.9,4.7-20.9,6.8c-37.4,10.6-74.8,20.7-112.2,31.4c1-6.4,3.7-13.5,0.4-19.6
	C641.3,788.9,636.8,782.6,632.9,775.9z"/>
</svg>
