<?xml version="1.0" encoding="UTF-8" ?>
<!DOCTYPE svg PUBLIC "-//W3C//DTD SVG 1.1//EN" "http://www.w3.org/Graphics/SVG/1.1/DTD/svg11.dtd">
<svg width="1111pt" height="1111pt" viewBox="0 0 1111 1111" version="1.1" xmlns="http://www.w3.org/2000/svg">
<path fill="#ffffff" stroke="#ffffff" stroke-width="0.09375" opacity="1.00" d=" M 0.0 0.0 L 1111.0 0.0 L 1111.0 1111.0 L 0.0 1111.0 L 0.0 0.0 Z" />
<path fill="#af0f11" stroke="#af0f11" stroke-width="0.09375" opacity="1.00" d=" M 646.6 149.0 C 652.9 148.9 658.8 150.9 664.8 152.3 C 708.7 163.7 749.1 187.1 782.4 217.6 C 784.7 219.7 785.9 222.6 786.6 225.5 C 795.3 266.0 797.3 308.8 785.6 348.8 C 783.1 358.4 778.3 367.1 775.6 376.6 C 788.6 362.4 797.3 344.9 803.9 326.9 C 813.4 301.3 816.2 273.6 815.5 246.4 C 840.8 274.4 855.7 310.8 861.7 347.9 C 862.6 354.9 864.6 362.2 862.3 369.1 C 848.3 417.9 815.6 459.8 775.9 490.6 C 776.1 491.0 776.5 491.9 776.7 492.4 C 792.6 487.2 807.2 478.7 820.1 468.2 C 832.2 458.4 843.4 447.3 852.8 434.9 C 860.9 424.7 867.9 413.6 875.1 402.8 C 875.7 425.2 876.5 447.8 872.8 470.0 C 868.9 495.0 861.4 520.3 845.2 540.2 C 838.5 549.0 828.4 554.0 818.7 558.9 C 785.2 575.2 748.3 582.4 712.1 590.3 C 721.4 593.2 731.3 592.1 740.9 591.4 C 759.2 590.5 777.5 588.3 795.5 584.7 C 806.8 582.7 817.7 578.6 828.9 576.2 C 811.7 600.3 790.3 621.1 766.7 638.8 C 739.2 659.4 708.8 675.8 677.3 689.2 C 667.1 693.4 656.9 697.7 646.3 700.3 C 651.6 694.5 658.3 690.3 664.3 685.2 C 678.2 673.5 691.9 661.4 703.1 647.0 C 706.6 642.5 709.6 637.5 710.8 631.8 C 691.4 638.1 673.0 647.2 655.4 657.4 C 639.6 666.2 624.7 676.4 610.4 687.3 C 605.6 691.1 600.6 694.5 596.6 699.2 C 598.5 713.4 604.4 726.7 610.1 739.8 C 619.1 759.2 629.6 777.8 641.4 795.7 C 643.0 798.1 644.6 801.0 643.9 804.1 C 641.6 816.9 638.9 829.6 636.2 842.3 C 622.5 819.3 610.9 795.1 597.7 771.9 C 607.2 809.8 619.0 847.3 634.5 883.2 C 620.2 903.1 607.5 924.1 597.5 946.5 C 594.5 953.2 592.3 960.3 588.7 966.7 C 587.0 932.1 585.8 897.4 582.7 862.9 C 580.8 845.4 579.7 827.7 575.1 810.7 C 571.2 846.4 568.8 882.3 565.6 918.0 C 563.1 946.0 560.7 974.1 558.5 1002.1 C 558.1 1006.1 557.6 1010.1 556.3 1013.9 C 552.9 988.0 551.6 962.0 549.1 936.0 C 546.3 906.1 544.0 876.0 541.3 846.1 C 540.5 834.9 539.6 823.8 537.8 812.8 C 534.5 831.1 532.9 849.7 531.1 868.2 C 527.9 901.1 526.9 934.3 527.9 967.4 C 523.4 959.2 520.1 950.4 515.9 942.1 C 505.8 921.5 495.0 900.6 478.3 884.5 C 488.6 856.7 498.3 828.6 507.2 800.3 C 509.9 790.8 513.8 781.4 513.8 771.3 C 500.9 794.9 490.4 819.8 476.1 842.6 C 473.0 828.6 470.2 814.5 468.0 800.4 C 483.3 777.1 498.2 753.3 508.7 727.4 C 511.8 718.7 515.7 709.7 514.9 700.1 C 512.8 696.9 509.5 694.8 506.6 692.4 C 488.5 678.5 469.9 665.4 450.3 653.7 C 434.4 644.4 418.1 635.6 400.4 630.3 C 409.7 652.1 426.6 669.6 444.7 684.4 C 452.0 690.3 460.3 694.9 467.4 701.1 C 457.6 699.4 448.3 695.5 439.0 692.1 C 386.4 671.8 336.5 641.7 299.1 599.0 C 292.4 591.1 285.4 583.3 280.5 574.1 C 302.8 580.8 325.4 586.3 348.4 589.9 C 364.7 592.3 381.1 594.5 397.6 593.5 C 390.5 590.2 382.8 588.6 375.4 586.4 C 352.6 579.8 330.0 572.5 307.9 564.1 C 297.5 560.1 287.2 555.9 277.4 550.7 C 273.1 548.5 268.7 546.0 265.9 542.0 C 256.3 528.6 249.4 513.2 244.8 497.4 C 239.6 478.7 236.4 459.4 237.0 440.0 C 237.3 427.3 236.2 414.5 238.7 401.9 C 258.9 442.6 294.3 474.9 335.9 492.7 C 330.5 487.6 324.5 483.1 319.0 478.1 C 302.9 464.0 288.4 448.1 276.3 430.5 C 263.1 411.6 252.7 390.3 248.3 367.4 C 247.9 364.6 247.8 361.8 248.1 358.9 C 251.8 325.5 263.7 293.1 282.0 264.9 C 286.0 258.6 290.1 252.3 295.5 247.0 C 293.5 274.8 296.5 303.2 307.1 329.1 C 313.8 346.0 324.0 361.4 336.5 374.5 C 325.2 345.4 318.6 314.3 317.9 283.0 C 317.7 263.0 320.7 243.0 326.9 224.0 C 328.5 219.3 332.0 215.8 335.6 212.6 C 361.2 190.3 391.6 174.1 423.2 162.1 C 435.7 157.5 448.2 152.6 461.4 150.0 C 459.1 152.4 456.2 153.9 453.5 155.7 C 429.1 171.2 407.8 192.0 393.0 217.0 C 378.0 241.9 370.6 271.1 371.0 300.0 C 371.3 328.2 378.0 356.1 388.3 382.3 C 379.0 400.3 372.2 419.8 369.7 440.0 C 367.5 458.3 368.5 477.3 374.0 495.0 C 379.2 512.1 388.0 528.0 399.3 541.8 C 418.6 565.0 443.7 583.0 471.1 595.6 C 463.7 589.3 455.4 584.2 448.2 577.8 C 424.2 557.7 402.7 533.5 390.6 504.4 C 381.6 482.2 379.3 456.9 385.9 433.8 C 400.2 481.9 433.6 523.7 476.8 549.1 C 481.3 551.5 484.6 555.4 487.5 559.5 C 498.5 573.4 510.3 588.1 527.3 594.9 C 536.2 575.5 538.3 554.0 541.7 533.1 C 542.7 525.7 545.1 518.5 546.2 511.1 C 540.1 501.5 528.0 499.6 519.6 492.9 C 534.8 492.2 549.9 492.3 565.0 493.2 C 574.4 493.5 583.7 495.2 592.3 498.8 C 597.9 501.2 604.7 500.1 609.7 504.2 C 617.1 510.8 620.4 521.6 618.0 531.2 C 615.5 527.7 613.1 522.2 608.0 522.4 C 598.4 523.7 591.7 531.5 583.4 535.7 C 583.2 538.1 582.6 540.7 583.9 542.8 C 591.7 558.3 592.6 576.0 598.1 592.3 C 609.9 580.1 622.2 568.0 631.4 553.5 C 634.2 548.9 639.3 546.8 643.4 543.6 C 677.6 519.6 707.1 487.1 721.5 447.4 C 723.3 442.9 724.2 437.9 726.6 433.6 C 730.9 456.8 727.6 481.0 719.0 502.9 C 708.0 530.7 688.6 554.6 665.9 573.8 C 656.7 581.6 647.0 588.7 636.9 595.4 C 645.5 594.3 652.9 589.5 660.3 585.4 C 685.6 570.8 708.6 551.2 724.3 526.4 C 736.6 506.9 743.7 484.1 743.9 461.0 C 744.1 436.9 737.7 413.1 727.8 391.2 C 726.4 388.1 724.4 384.6 726.0 381.2 C 737.8 351.7 743.6 319.7 741.7 288.0 C 739.6 254.3 726.5 221.2 704.5 195.4 C 692.3 180.9 677.5 168.5 661.4 158.5 C 656.5 155.3 651.0 152.9 646.6 149.0 Z" />
<path fill="#af0f11" stroke="#af0f11" stroke-width="0.09375" opacity="1.00" d=" M 31.5 280.2 C 33.5 282.8 34.9 285.8 36.4 288.6 C 50.7 317.2 65.5 345.6 82.1 373.0 C 97.0 397.4 112.2 421.8 129.6 444.5 C 153.0 475.7 178.4 505.5 207.7 531.3 C 229.7 551.9 254.3 569.4 280.1 584.9 C 284.6 587.6 288.5 591.2 291.6 595.4 C 306.7 614.3 324.8 630.4 343.8 645.0 C 297.7 637.7 252.0 628.2 207.0 616.1 C 189.4 611.2 171.9 605.6 154.3 600.7 C 143.2 596.0 131.3 593.5 120.2 588.9 C 115.1 587.0 109.2 585.8 105.7 581.3 C 97.6 570.7 91.8 558.5 86.9 546.1 C 79.2 527.2 73.4 507.7 68.2 488.0 C 59.6 454.7 52.6 421.1 46.8 387.2 C 40.7 351.7 35.4 316.1 31.5 280.2 Z" />
<path fill="#af0f11" stroke="#af0f11" stroke-width="0.09375" opacity="1.00" d=" M 1066.9 306.9 C 1071.8 298.3 1075.1 288.7 1081.0 280.6 C 1075.1 332.8 1067.0 384.7 1056.4 436.1 C 1051.6 458.9 1046.3 481.6 1039.9 503.9 C 1034.7 521.9 1028.8 539.8 1021.0 556.9 C 1017.7 564.0 1014.1 571.0 1009.7 577.6 C 1007.3 580.8 1004.7 584.3 1000.9 585.7 C 990.1 590.1 979.0 593.7 967.9 597.1 C 963.0 599.1 958.1 601.0 953.0 602.2 C 943.0 604.7 933.4 608.4 923.4 610.7 C 902.3 617.5 880.7 622.5 859.1 627.6 C 827.7 634.7 796.1 641.0 764.3 645.6 C 781.8 632.3 798.4 617.7 813.2 601.4 C 816.9 597.1 820.2 592.3 825.1 589.3 C 852.8 573.1 879.4 554.8 902.9 533.0 C 921.3 516.8 938.5 499.1 954.3 480.3 C 999.4 427.9 1035.3 368.2 1066.9 306.9 Z" />
<path fill="#ffffff" stroke="#ffffff" stroke-width="0.09375" opacity="1.00" d=" M 569.1 508.8 C 578.7 504.2 591.4 504.0 599.4 511.7 C 594.1 513.3 588.6 514.5 583.3 515.8 C 581.8 514.2 580.4 512.5 578.9 510.9 C 575.6 510.3 572.4 509.5 569.1 508.8 Z" />
<path fill="#af0f11" stroke="#af0f11" stroke-width="0.09375" opacity="1.00" d=" M 141.0 618.1 C 149.9 620.9 159.1 622.6 168.0 625.2 C 182.4 628.7 196.5 633.2 211.2 635.4 C 228.3 638.1 245.0 642.6 262.0 645.4 C 295.0 650.3 327.9 655.4 361.0 659.0 C 364.9 659.4 368.4 661.3 371.6 663.4 C 395.9 678.5 422.2 690.0 449.0 700.1 C 437.0 700.7 425.0 699.5 413.0 699.1 C 386.1 697.9 359.1 698.3 332.2 696.4 C 322.8 695.4 313.4 695.4 304.0 695.0 C 279.0 693.9 253.9 693.2 228.9 690.8 C 217.9 690.0 206.8 690.0 195.8 688.8 C 184.8 686.9 176.9 678.0 170.1 669.9 C 157.9 654.2 147.1 637.1 141.0 618.1 Z" />
<path fill="#af0f11" stroke="#af0f11" stroke-width="0.09375" opacity="1.00" d=" M 944.3 625.2 C 953.3 622.6 962.5 620.9 971.4 618.1 C 969.0 627.2 964.5 635.7 959.9 644.0 C 953.9 654.6 947.0 664.8 938.9 673.9 C 934.4 678.9 929.6 683.7 923.5 686.6 C 916.5 690.1 908.5 689.2 901.0 689.9 C 884.3 690.4 867.8 692.5 851.1 693.1 C 834.1 693.8 817.0 694.8 800.0 695.2 C 788.3 695.3 776.7 696.9 765.1 697.2 C 744.7 698.1 724.4 698.1 704.0 698.9 C 689.6 699.4 675.1 700.8 660.5 700.1 C 685.2 690.6 709.3 679.6 732.1 666.1 C 736.8 663.4 741.4 660.0 747.0 659.5 C 782.0 655.8 816.7 650.4 851.5 645.2 C 868.4 642.4 884.9 637.9 901.9 635.3 C 916.3 633.1 930.2 628.6 944.3 625.2 Z" />
<path fill="#af0f11" stroke="#af0f11" stroke-width="0.09375" opacity="1.00" d=" M 408.1 637.6 C 413.8 638.7 419.0 641.4 424.3 643.9 C 450.7 657.0 475.4 673.5 498.9 691.2 C 503.4 694.8 508.2 697.9 512.0 702.3 C 511.9 711.8 507.7 720.5 504.5 729.3 C 484.0 702.9 462.5 676.7 435.9 656.2 C 430.4 655.0 424.6 656.1 419.3 654.1 C 414.1 649.7 411.1 643.5 408.1 637.6 Z" />
<path fill="#af0f11" stroke="#af0f11" stroke-width="0.09375" opacity="1.00" d=" M 674.5 651.3 C 684.1 646.7 693.5 641.5 703.9 638.9 C 701.5 644.1 697.7 648.6 693.8 652.8 C 692.7 653.8 691.8 655.3 690.1 655.1 C 684.7 655.4 678.6 654.7 674.0 658.1 C 648.9 678.2 628.4 703.2 608.6 728.3 C 604.9 719.5 601.9 710.3 599.8 701.0 C 607.6 693.5 616.5 687.3 625.3 681.1 C 640.8 669.8 657.4 660.1 674.5 651.3 Z" />
<path fill="#af0f11" stroke="#af0f11" stroke-width="0.09375" opacity="1.00" d=" M 215.5 708.8 C 246.0 709.6 276.5 710.6 307.0 711.4 C 356.7 712.0 406.4 713.7 456.0 713.6 C 464.0 713.9 471.9 713.5 479.8 714.3 C 481.6 715.4 482.7 717.4 483.9 719.0 C 489.0 726.4 494.3 733.7 499.3 741.1 C 495.4 746.1 492.4 751.7 490.2 757.6 C 461.8 757.5 433.4 757.6 405.0 757.6 C 383.3 757.3 361.7 758.5 340.0 758.2 C 316.0 758.0 292.0 757.4 268.0 757.4 C 262.9 757.4 258.2 754.9 254.0 752.2 C 244.0 745.7 236.1 736.6 228.1 727.9 C 222.9 722.2 218.7 715.7 215.5 708.8 Z" />
<path fill="#af0f11" stroke="#af0f11" stroke-width="0.09375" opacity="1.00" d=" M 805.9 711.5 C 836.3 710.5 866.7 709.6 897.0 708.8 C 893.0 717.6 887.1 725.4 880.4 732.4 C 872.2 741.2 863.6 750.2 852.6 755.5 C 846.8 758.3 840.2 757.4 834.0 757.5 C 821.6 757.2 809.3 757.6 797.0 758.1 C 778.3 758.0 759.6 758.4 740.9 757.9 C 723.0 757.2 705.0 757.7 687.0 757.6 C 665.6 757.5 644.2 757.6 622.9 757.6 C 620.0 751.8 616.1 746.4 614.4 740.0 C 619.4 730.7 626.4 722.7 632.3 713.9 C 674.2 713.5 716.1 713.3 758.0 712.2 C 774.0 711.8 789.9 711.7 805.9 711.5 Z" />
<path fill="#af0f11" stroke="#af0f11" stroke-width="0.09375" opacity="1.00" d=" M 400.0 776.7 C 412.3 776.3 424.7 777.1 437.0 776.4 C 451.0 775.4 465.1 776.0 479.2 775.8 C 475.6 783.1 470.7 789.7 466.5 796.6 C 463.6 802.5 466.9 808.9 467.3 815.1 C 433.9 805.8 400.4 796.5 367.0 787.1 C 356.2 783.7 344.8 782.1 334.7 777.1 C 356.4 776.0 378.2 776.8 400.0 776.7 Z" />
<path fill="#af0f11" stroke="#af0f11" stroke-width="0.09375" opacity="1.00" d=" M 632.9 775.9 C 642.9 775.9 653.0 775.7 663.0 775.8 C 701.3 777.9 739.6 775.5 777.9 777.1 C 771.4 780.6 764.0 781.8 757.0 783.9 C 719.6 794.5 682.2 804.6 644.8 815.3 C 645.8 808.9 648.5 801.8 645.2 795.7 C 641.3 788.9 636.8 782.6 632.9 775.9 Z" />
</svg>
