<svg version="1" xmlns="http://www.w3.org/2000/svg" width="933.333" height="933.333" viewBox="0 0 700.000000 700.000000"><path d="M408 94.5c.6.7 4 3 7.6 5.1 21.8 12.8 39.3 34.4 46.7 57.9 3.6 11.4 3.9 13.4 4.3 29.5.4 17.7-2 32.5-8 48.9-2.2 5.9-2.1 6.7 1.4 15.2 2.9 7 6.3 18.8 7.4 25.4.2 1.6.5 3.2.6 3.5.1.3.1 4.7.1 9.9-.3 21.8-7.9 39.5-24.7 57.1-7.6 8-18.7 16.4-29.1 22.3-10.1 5.8-11.3 5.3-2.8-1 12.4-9.2 25.5-22.6 32-32.8 10.4-16.1 14.5-28.6 15.2-46.6.7-15.2-.5-19.1-3.2-10.8-7.3 22.4-23.5 43.8-46 60.6-5.7 4.3-11.8 9.9-14.2 13.1-6.8 8.9-17.5 20.4-18.3 19.5-.5-.4-1.6-4.4-2.5-8.8-1-4.4-2.8-11.2-4.1-15-1.3-3.9-2.4-7.7-2.4-8.5.1-1.7 7.6-6.9 12.8-8.7 3.2-1.2 3.5-1.1 6.3 1.9l2.9 3.2v-4.2c0-8.4-4.3-14.5-11-15.8-1.9-.4-6-1.6-9-2.7-4.5-1.6-8.8-2-24.5-2.3-21.1-.4-21-.5-9.5 5.7 7.8 4.1 8 4.8 6 15.1-1 4.8-2.1 10.6-2.4 13-1.9 13.7-5.7 28.1-7.7 29.4-2 1.2-12.3-7.1-20.8-16.9-6.2-7-11-11.4-17.1-15.4-10.5-6.9-27-23.2-33.9-33.5-6.3-9.4-11.7-20.1-14.7-28.8l-2.2-6.5-1.1 4c-2.5 9.3-1.9 24.3 1.5 35 5.5 17.7 19.7 37.1 38.9 53 9.4 7.8 9.8 8.3 4 5-11.1-6.3-17-10.7-26.9-20.3-20.8-20.3-29.9-46-26.1-73.7 1-7.2 5-20.5 8.5-28.2l3-6.6-2-5.6c-2.9-7.7-6.9-23.9-7.8-31.3-.4-3.5-.6-11.9-.5-18.8.4-33.1 16.7-62.1 47-83.6 5.2-3.7 9.2-6.8 9-7-1-1.1-24.7 7.1-37.2 12.9-17.9 8.3-34.8 19.1-43.6 27.9-6.4 6.4-9.8 23-9.4 45.3.4 16.4 2.3 28.2 7.4 44.5 1.8 5.7 2.4 8.7 1.5 7.5-.8-1.1-2.2-2.9-3.2-4-6.9-8.2-13.2-21.5-16.8-35.6-2.1-8.3-2.6-12.9-2.7-24-.2-15.9-.2-15.9-8.2-3.7-10.1 15.2-17.8 34.2-21.1 51.5-2 10.6-1.4 17.3 2.2 27.4 7.3 20.6 22 40.5 44.4 60.3l5.5 4.9-7-3.8c-8.4-4.6-20.3-13-26.5-18.8-8.7-8.2-19.4-22-24-31.1l-1.4-2.8-.9 3.3c-1.4 5.4-.1 39.3 1.8 47.9 3.7 16.7 11.9 34.7 18.1 40.1 5.4 4.7 29.8 14.3 59.4 23.4 10.2 3.2 18.7 6 19 6.2.5.5-10.4-.2-20.5-1.3-6.5-.7-24.4-4.1-32-6.1-3.3-.8-6.9-1.7-8.1-1.9-1.2-.2-4-1-6.3-1.8-5.4-2-5.3-.8.2 6.5 19.6 26.2 54 51.1 89.7 64.9 4.7 1.8 9.9 3.9 11.5 4.6 3.4 1.4 11.8 3.5 12.2 3 .2-.2-3.1-2.7-7.4-5.6-10.4-7.1-24.9-21.8-30.1-30.5-2.3-3.8-4-7-3.8-7.2.2-.2 2 .3 4.2 1.1 13.6 4.8 35.3 17.7 57.2 34 10.3 7.7 10.8 9 7 19.9-4.6 13-15.7 33.9-25.7 48.7-1.7 2.4-1.6 3.2.9 15.9l2.6 13.5 2.3-3.2c1.2-1.7 6.3-11.2 11.3-20.9 5-9.8 9.3-18 9.6-18.3 1.9-2-6.2 24.2-16.7 53.9l-5.1 14.3 4 4.5c6.5 7.4 11 14.8 19.7 32.3l8.2 16.5.1-19.5c.1-10.7.3-21.8.5-24.5.4-7.4 1.5-20.5 2-24.5.3-1.9.7-6.7 1.1-10.5.4-3.9.8-7.7.9-8.5.2-.8.4-2.6.4-3.9.1-2.7 1-2.4 1.5.5.2 1.1.7 6.6 1.1 12.4.4 5.8.9 10.7 1 11 .2.3.6 5.2 1 11s.8 11.2 1 12c.2.8.6 5.1.9 9.5 1.1 14 1.6 19.9 2.1 24.5.3 2.5.7 7.9 1.1 12 2.7 34.1 3.6 34.7 5.9 4 .3-3.6.7-9 1-12 .2-3 .7-8.4 1-12 .3-3.6.8-8.3 1-10.5.3-2.2.9-10.1 1.5-17.5 1.3-17.1 2.4-29.9 3.6-43 .6-6.4.9-7 1.6-4.5.9 3.6 3.5 25.6 4.3 37.5.3 4.7.8 10.7 1 13.5.6 6.5 1.7 29.5 1.8 36.2 0 2.9.3 5.3.7 5.3.3 0 1.4-2.1 2.5-4.8 3.6-9.1 14.1-28.8 20.3-38.3l6.3-9.7-3.6-8.6c-6-14.4-19.4-56.6-18-56.6.2 0 2.9 4.8 6.1 10.7 13.2 24.9 16 29.7 16.6 28.1.3-.7 1.6-6.6 2.8-13.1 2.6-13.5 3.1-11.6-6-26.2-10.4-16.5-23-45.8-21.4-49.8 1.4-3.8 32.7-24.8 49.2-33.1 8.8-4.4 20.3-8.9 20.9-8.2 2.2 2.2-16.3 22.5-30.4 33.6-10.5 8.1-10.9 9.4-2 6.4 29.4-10.3 63.6-30.2 83.6-48.9 9.5-8.9 25.1-26.2 25.1-27.9 0-.2-3.7.7-8.2 2-4.6 1.3-10.8 2.8-13.8 3.4-3 .5-6.4 1.2-7.5 1.4-1.1.2-4.9.7-8.5 1.1-3.6.4-7.2.9-8 1-.8.2-6.9.6-13.4 1-13 .8-15-.3-4.4-2.5 3.5-.7 6.8-1.7 7.4-2.1.6-.5 1.3-.6 1.7-.3.6.6 23.8-5.6 32.7-8.8 9.6-3.5 23.4-10.5 27.7-14.2 4.3-3.7 10.9-13.4 13.8-20.2 6.4-15 8.7-28 9.1-51.8l.3-19.9-2.2 3.2c-13.8 20.2-22.8 30.5-35 40-6.6 5.2-23.6 14.5-24.6 13.5-.3-.2 1.3-1.9 3.4-3.7 22.5-18.4 39.9-42.8 48.5-67.7 2.5-7.2 2.5-8 1.6-16.4-2.3-19.6-11.9-44-23.2-58.6-7.1-9.3-7-9.4-7.2 2.8-.1 5.9-.4 11.8-.7 13.2-.3 1.3-.7 4.2-1 6.3-2 13.4-9 31.6-16.5 42.9-2.4 3.7-4.5 6.6-4.7 6.4-.2-.1.8-3 2.1-6.4 7.9-20.1 10.1-49.7 5.6-75.7-2.3-13.2-2.7-13.9-10.9-20.8-20.9-17.5-44-29.8-67.1-35.8-10.6-2.7-13.4-3-12-1.4z"/><path d="M680.3 177.2c-.6.7-3.7 6.5-6.9 12.8-43.1 85.2-87.5 138.9-145.2 175.8-6.2 4-12.9 9.1-15 11.4-7.7 8.7-23.4 23.3-30.2 28.1l-2.5 1.8 4.8-.6c2.7-.4 5.7-.8 6.7-1 .9-.2 3.5-.6 5.6-.9 9.1-1.5 40-7.9 53.4-11.2 8-2 15.2-3.7 16-3.9 3.6-.8 37.4-11 47-14.2 18.1-6.1 19.2-6.7 23.7-13.6 12.4-19.2 24.6-61.9 34.8-122.4 3.6-21.3 6.8-43.7 8-55.3.4-3.6.9-6.8 1.2-7.3.7-1.2-.4-.8-1.4.5zM19.4 177.9c.3.4.8 3.5 1.1 6.7.3 3.2 1.3 10.8 2.1 16.9.8 6 1.7 12.6 2 14.5.2 1.9.6 4.6.9 6 .2 1.4.7 3.8.9 5.5 11.4 72.1 27.9 128.2 41.4 140.1 3.8 3.4 48.1 17.4 78.2 24.9 25.8 6.4 70 14.9 70 13.5 0-.4-2.7-2.8-6-5.4-6.5-5.1-15.4-13.8-26-25.1-4.4-4.7-10.4-9.5-18.6-14.7C113.5 327.4 69.8 273 26 187.2c-2.8-5.6-5.6-10.2-6.2-10.2-.5 0-.7.4-.4.9zM89.4 391.6c3 12 20.2 36.3 28.9 41.1 2.8 1.5 8.2 2.1 22.8 2.8 6.4.3 12.5.7 13.5.9 1.1.2 10 .7 19.9 1.1 9.9.4 20.8.8 24.1 1 10.8.7 30.4 1.4 49.4 2 10.2.4 22.3.8 26.9 1 4.6.2 7.9 0 7.5-.5-.5-.4-6.1-2.9-12.4-5.5-11.8-4.8-22.6-10.1-33.8-16.6-4-2.4-8.3-4-11.5-4.4-2.9-.3-7-.8-9.2-1.1-2.2-.2-5.1-.7-6.5-.9-1.4-.2-4.7-.7-7.5-1-5.3-.6-10.1-1.3-14.9-2.1-1.6-.3-8.8-1.4-16-2.5-7.2-1-17.1-2.8-22.1-3.9-4.9-1-10.1-2.1-11.5-2.3-1.4-.3-4.3-.8-6.5-1.3-2.2-.4-4.7-.8-5.5-.9-.8-.1-2.2-.5-3-.8-.8-.3-7.8-2.1-15.6-4.1-7.8-1.9-14.9-3.9-15.9-4.2-1.6-.6-1.7-.4-1.1 2.2zM607.5 390.1c-14.3 4.4-62.1 14.9-77 16.9-6.5.9-19.5 2.8-23.5 3.5-6.9 1.1-26.2 3.6-31.5 4-4.3.4-7.8 1.5-12.5 4.1-11.3 6.1-36.3 18.1-41.7 20-2.8 1-5 2.1-4.7 2.5.2.4 3.9.5 8.1.4 4.3-.2 17.3-.6 28.8-1 11.6-.3 25.1-.8 30-1 18.4-1 28.4-1.4 44-2 8.8-.4 17.4-.9 19-1.1 1.7-.2 8-.6 14-.9 20.8-1 22.5-1.6 30.6-10.2 7.7-8.2 18.6-26.1 20.4-33.6.8-2.9.5-3-4-1.6zM257 401.8c0 1.1 5.6 9.8 6.7 10.5.6.4 2.7.7 4.9.8 2.1.1 5.2.9 6.8 1.6 4.2 2.1 24.9 23.2 34.4 35.1 4.8 6.1 8.4 9.8 8.7 9 2.5-6.8 4.5-13.4 4.5-14.9 0-1-2.1-3.5-4.7-5.6-2.7-2.1-5-4.1-5.3-4.4-1.2-1.3-20.3-14.2-28.5-19.1-13.1-7.9-27.5-14.7-27.5-13zM437 404.4c-14.4 6-33.3 17.1-47.9 28-5.2 3.9-10 7.5-10.6 8-1 .7-.7 2.6.9 8 3.8 12.1 3.2 12.1 12.1.9 10.4-13 30.3-32.9 34.9-34.8 1.9-.8 4.8-1.5 6.4-1.5 2.9 0 7.8-4.2 10.1-8.8 1.4-2.7 1-2.7-5.9.2zM135.8 446.6c.6.3 1 .9.7 1.3-1.4 2.4 16.8 22.4 24.5 26.9l4.5 2.7 71.8.1 71.8.2 1.2-2.7c.6-1.4 1.9-3.8 2.9-5.3l1.9-2.7-5.3-7.7c-2.9-4.1-6-8.2-7.1-8.9-1.4-1-8.8-1.3-30-1.4-40.6-.3-81.2-1.1-125.2-2.6-7.1-.2-12.4-.1-11.7.1zM546.7 446.6c-.7.6-79.9 2.2-121.3 2.4l-27.1.2-4.7 6.6c-7.2 9.8-7.3 10.1-4.3 16.5l2.6 5.4 71.8-.1 71.8-.1 4.6-2.8c7.7-4.6 22.6-20.7 24.3-26.4.7-2.1.5-2.1-8.4-2-5 .1-9.2.3-9.3.3zM245 489c-32.4.5-34.3.6-31 2.1 1.9.8 5.8 2.1 8.5 2.9 5 1.3 32.7 8.9 42 11.5 23.9 6.8 29.9 8.4 30.3 8.1.2-.3 0-1.5-.4-2.8-1.4-4.2-.7-7.5 2.9-13.4 1.9-3.3 3.7-6.6 3.9-7.4.4-1.7-2-1.8-56.2-1zM399 489.2c0 .5 1.9 3.8 4.1 7.4 4 6.2 4.1 6.8 3.5 12-.6 5-.5 5.5 1.1 5 1-.3 19.5-5.5 41.2-11.5 21.7-6 39.8-11.4 40.4-12 .7-.7-10.1-1.1-32.9-1.2-18.6-.1-39.2-.2-45.6-.3-6.5-.1-11.8.2-11.8.6z"/></svg>